<svg width="22" height="16" viewBox="0 0 22 16" fill="none" xmlns="http://www.w3.org/2000/svg">
<path d="M0.75 7.75C0.75 4.45 0.75 2.8 2.214 1.775C3.68 0.75 6.036 0.75 10.75 0.75C15.464 0.75 17.821 0.75 19.285 1.775C20.749 2.8 20.75 4.45 20.75 7.75C20.75 11.05 20.75 12.7 19.285 13.725C17.822 14.75 15.464 14.75 10.75 14.75C6.036 14.75 3.679 14.75 2.214 13.725C0.749 12.7 0.75 11.05 0.75 7.75Z" stroke="#AFC6D8" stroke-width="1.5" stroke-linecap="round" stroke-linejoin="round"/>
<path d="M9.25 5.658V9.842C9.25027 9.89584 9.26113 9.94911 9.28198 9.99875C9.30283 10.0484 9.33325 10.0934 9.3715 10.1313C9.40976 10.1692 9.45511 10.1992 9.50495 10.2196C9.5548 10.2399 9.60816 10.2503 9.662 10.25C9.74314 10.251 9.82266 10.2273 9.89001 10.182L13.065 8.108C13.1215 8.07143 13.168 8.02136 13.2003 7.96231C13.2326 7.90327 13.2496 7.83711 13.2499 7.76981C13.2502 7.70252 13.2337 7.63621 13.202 7.57688C13.1702 7.51755 13.1242 7.46707 13.068 7.43L9.893 5.32C9.80224 5.25924 9.69118 5.23671 9.58391 5.25731C9.47664 5.2779 9.38182 5.33995 9.32 5.43C9.27403 5.49711 9.24961 5.57665 9.25 5.658Z" stroke="#AFC6D8" stroke-width="1.5" stroke-linecap="round" stroke-linejoin="round"/>
</svg>
