<svg width="17" height="20" viewBox="0 0 17 20" fill="none" xmlns="http://www.w3.org/2000/svg">
<path d="M8.92836 0.014289C9.99042 -1.33077e-08 11.0525 0.014289 12.1145 0C12.1853 1.27172 12.6243 2.57202 13.5448 3.47223C14.4511 4.40102 15.7397 4.8154 17 4.95829V8.31621C15.8247 8.27334 14.6493 8.03043 13.5731 7.51603C13.1058 7.30169 12.681 7.0302 12.2561 6.74442C12.2561 9.17355 12.2561 11.617 12.242 14.0318C12.1853 15.2035 11.803 16.3609 11.1374 17.3183C10.0754 18.9187 8.22033 19.9618 6.32278 19.9903C5.1616 20.0618 3.98626 19.7331 2.995 19.133C1.35235 18.1471 0.19117 16.3181 0.0212411 14.3748C-0.00708038 13.9604 -0.00708038 13.546 0.0212411 13.1316C0.162849 11.5455 0.941691 10.0309 2.1312 9.00208C3.47647 7.80181 5.37401 7.23024 7.14411 7.57318C7.15827 8.80204 7.11579 10.0452 7.11579 11.274C6.30862 11.0025 5.35985 11.0883 4.65181 11.5884C4.12786 11.9313 3.74552 12.4457 3.53311 13.0459C3.36318 13.4745 3.40566 13.9318 3.41983 14.389C3.61808 15.7608 4.90671 16.9039 6.26614 16.7753C7.17243 16.7753 8.0504 16.218 8.5177 15.4321C8.67347 15.1607 8.8434 14.8749 8.85756 14.5462C8.94252 13.0602 8.90004 11.5741 8.9142 10.0738C8.9142 6.71584 8.9142 3.35792 8.92836 0.014289Z" fill="#AFC6D8"/>
</svg>
